<svg width="20" height="19" viewBox="0 0 20 19" fill="none" xmlns="http://www.w3.org/2000/svg">
<path d="M8.45563 10.9666C9.61535 12.1431 11.0186 13.0514 12.5667 13.6278L14.6612 11.9611C14.7233 11.9183 14.7969 11.8954 14.8723 11.8954C14.9477 11.8954 15.0213 11.9183 15.0834 11.9611L18.9723 14.4666C19.1199 14.5554 19.2449 14.6773 19.3374 14.8226C19.4298 14.968 19.4872 15.1329 19.505 15.3042C19.5227 15.4756 19.5004 15.6487 19.4398 15.8099C19.3792 15.9712 19.2819 16.1161 19.1556 16.2333L17.3334 18.0333C17.0725 18.2912 16.7517 18.4804 16.3998 18.5841C16.0479 18.6878 15.6758 18.7028 15.3167 18.6278C11.7346 17.8879 8.43293 16.1553 5.78897 13.6278C3.20368 11.0751 1.41467 7.82712 0.638967 4.27776C0.562337 3.92422 0.578331 3.55689 0.685398 3.21135C0.792466 2.86582 0.986976 2.5538 1.25008 2.30553L3.13897 0.483311C3.25586 0.363192 3.3984 0.271074 3.55594 0.213854C3.71347 0.156633 3.88191 0.135793 4.04864 0.152893C4.21537 0.169994 4.37607 0.224592 4.51871 0.3126C4.66135 0.400607 4.78223 0.519744 4.8723 0.661088L7.46119 4.49998C7.50584 4.56026 7.52995 4.63329 7.52995 4.70831C7.52995 4.78333 7.50584 4.85636 7.46119 4.91664L5.75563 6.96664C6.34762 8.48383 7.26993 9.85021 8.45563 10.9666Z" fill="white"/>
</svg>
