<svg width="22" height="23" viewBox="0 0 22 23" fill="none" xmlns="http://www.w3.org/2000/svg">
<path d="M17.0996 16.6289L19.785 19.3129C19.9102 19.4425 19.9795 19.6162 19.9779 19.7964C19.9764 19.9767 19.9041 20.1491 19.7766 20.2766C19.6491 20.4041 19.4767 20.4764 19.2964 20.4779C19.1162 20.4795 18.9425 20.4102 18.8129 20.285L16.1275 17.5996C14.3727 19.1031 12.1037 19.8685 9.79673 19.7351C7.48976 19.6018 5.32411 18.58 3.7542 16.8844C2.1843 15.1887 1.33218 12.9509 1.37666 10.6405C1.42113 8.3301 2.35874 6.12673 3.99273 4.49273C5.62673 2.85874 7.8301 1.92113 10.1405 1.87666C12.4509 1.83218 14.6887 2.6843 16.3844 4.2542C18.08 5.82411 19.1018 7.98976 19.2351 10.2967C19.3685 12.6037 18.6031 14.8727 17.0996 16.6275V16.6289ZM10.3126 18.3751C12.3183 18.3751 14.2419 17.5783 15.6601 16.1601C17.0783 14.7419 17.8751 12.8183 17.8751 10.8126C17.8751 8.80691 17.0783 6.88336 15.6601 5.46512C14.2419 4.04687 12.3183 3.25011 10.3126 3.25011C8.30691 3.25011 6.38336 4.04687 4.96512 5.46512C3.54687 6.88336 2.75011 8.80691 2.75011 10.8126C2.75011 12.8183 3.54687 14.7419 4.96512 16.1601C6.38336 17.5783 8.30691 18.3751 10.3126 18.3751Z" fill="#707070"/>
</svg>
